<?xml version="1.0" encoding="UTF-8"?>
<!DOCTYPE svg PUBLIC "-//W3C//DTD SVG 1.1//EN" "http://www.w3.org/Graphics/SVG/1.1/DTD/svg11.dtd">
<svg version="1.2" width="13.16mm" height="12.16mm" viewBox="11150 10537 1316 1216" preserveAspectRatio="xMidYMid" fill-rule="evenodd" stroke-width="28.222" stroke-linejoin="round" xmlns="http://www.w3.org/2000/svg" xmlns:ooo="http://xml.openoffice.org/svg/export" xmlns:xlink="http://www.w3.org/1999/xlink" xmlns:presentation="http://sun.com/xmlns/staroffice/presentation" xmlns:smil="http://www.w3.org/2001/SMIL20/" xmlns:anim="urn:oasis:names:tc:opendocument:xmlns:animation:1.0" xml:space="preserve">
 <defs class="ClipPathGroup">
  <clipPath id="presentation_clip_path" clipPathUnits="userSpaceOnUse">
   <rect x="11150" y="10537" width="1316" height="1216"/>
  </clipPath>
  <clipPath id="presentation_clip_path_shrink" clipPathUnits="userSpaceOnUse">
   <rect x="11151" y="10538" width="1314" height="1214"/>
  </clipPath>
 </defs>
 <defs class="TextShapeIndex">
  <g ooo:slide="id1" ooo:id-list="id3 id4 id5"/>
 </defs>
 <defs class="EmbeddedBulletChars">
  <g id="bullet-char-template(57356)" transform="scale(0.00048828125,-0.00048828125)">
   <path d="M 580,1141 L 1163,571 580,0 -4,571 580,1141 Z"/>
  </g>
  <g id="bullet-char-template(57354)" transform="scale(0.00048828125,-0.00048828125)">
   <path d="M 8,1128 L 1137,1128 1137,0 8,0 8,1128 Z"/>
  </g>
  <g id="bullet-char-template(10146)" transform="scale(0.00048828125,-0.00048828125)">
   <path d="M 174,0 L 602,739 174,1481 1456,739 174,0 Z M 1358,739 L 309,1346 659,739 1358,739 Z"/>
  </g>
  <g id="bullet-char-template(10132)" transform="scale(0.00048828125,-0.00048828125)">
   <path d="M 2015,739 L 1276,0 717,0 1260,543 174,543 174,936 1260,936 717,1481 1274,1481 2015,739 Z"/>
  </g>
  <g id="bullet-char-template(10007)" transform="scale(0.00048828125,-0.00048828125)">
   <path d="M 0,-2 C -7,14 -16,27 -25,37 L 356,567 C 262,823 215,952 215,954 215,979 228,992 255,992 264,992 276,990 289,987 310,991 331,999 354,1012 L 381,999 492,748 772,1049 836,1024 860,1049 C 881,1039 901,1025 922,1006 886,937 835,863 770,784 769,783 710,716 594,584 L 774,223 C 774,196 753,168 711,139 L 727,119 C 717,90 699,76 672,76 641,76 570,178 457,381 L 164,-76 C 142,-110 111,-127 72,-127 30,-127 9,-110 8,-76 1,-67 -2,-52 -2,-32 -2,-23 -1,-13 0,-2 Z"/>
  </g>
  <g id="bullet-char-template(10004)" transform="scale(0.00048828125,-0.00048828125)">
   <path d="M 285,-33 C 182,-33 111,30 74,156 52,228 41,333 41,471 41,549 55,616 82,672 116,743 169,778 240,778 293,778 328,747 346,684 L 369,508 C 377,444 397,411 428,410 L 1163,1116 C 1174,1127 1196,1133 1229,1133 1271,1133 1292,1118 1292,1087 L 1292,965 C 1292,929 1282,901 1262,881 L 442,47 C 390,-6 338,-33 285,-33 Z"/>
  </g>
  <g id="bullet-char-template(9679)" transform="scale(0.00048828125,-0.00048828125)">
   <path d="M 813,0 C 632,0 489,54 383,161 276,268 223,411 223,592 223,773 276,916 383,1023 489,1130 632,1184 813,1184 992,1184 1136,1130 1245,1023 1353,916 1407,772 1407,592 1407,412 1353,268 1245,161 1136,54 992,0 813,0 Z"/>
  </g>
  <g id="bullet-char-template(8226)" transform="scale(0.00048828125,-0.00048828125)">
   <path d="M 346,457 C 273,457 209,483 155,535 101,586 74,649 74,723 74,796 101,859 155,911 209,963 273,989 346,989 419,989 480,963 531,910 582,859 608,796 608,723 608,648 583,586 532,535 482,483 420,457 346,457 Z"/>
  </g>
  <g id="bullet-char-template(8211)" transform="scale(0.00048828125,-0.00048828125)">
   <path d="M -4,459 L 1135,459 1135,606 -4,606 -4,459 Z"/>
  </g>
  <g id="bullet-char-template(61548)" transform="scale(0.00048828125,-0.00048828125)">
   <path d="M 173,740 C 173,903 231,1043 346,1159 462,1274 601,1332 765,1332 928,1332 1067,1274 1183,1159 1299,1043 1357,903 1357,740 1357,577 1299,437 1183,322 1067,206 928,148 765,148 601,148 462,206 346,322 231,437 173,577 173,740 Z"/>
  </g>
 </defs>
 <defs class="TextEmbeddedBitmaps"/>
 <g class="SlideGroup">
  <g>
   <g id="container-id1">
    <g id="id1" class="Slide" clip-path="url(#presentation_clip_path)">
     <g class="Page">
      <g class="Graphic">
       <g id="id3">
        <rect class="BoundingBox" stroke="none" fill="none" x="11450" y="10537" width="1017" height="1017"/>
        <defs>
         <mask id="mask1">
          <g>
           <defs>
            <linearGradient id="gradient1" x1="11958" y1="10088" x2="11958" y2="12002" gradientUnits="userSpaceOnUse">
             <stop offset="0.5" style="stop-color:rgb(179,179,179)"/>
             <stop offset="0.5" style="stop-color:rgb(179,179,179)"/>
             <stop offset="1" style="stop-color:rgb(179,179,179)"/>
             <stop offset="1" style="stop-color:rgb(179,179,179)"/>
            </linearGradient>
           </defs>
           <path style="fill:url(#gradient1)" d="M 11001,10088 L 12915,10088 12915,12002 11001,12002 11001,10088 Z"/>
          </g>
         </mask>
        </defs>
        <g style="mask:url(#mask1)">
         <path fill="rgb(0,0,0)" stroke="none" d="M 12019,11106 C 12019,11117 12016,11126 12011,11136 12005,11146 11998,11153 11988,11158 11979,11164 11969,11167 11958,11167 11947,11167 11937,11164 11928,11158 11918,11153 11911,11146 11905,11136 11900,11126 11897,11117 11897,11106 11897,11094 11900,11085 11905,11075 11911,11065 11918,11058 11928,11053 11937,11047 11947,11045 11958,11045 11969,11045 11979,11047 11988,11053 11998,11058 12005,11065 12011,11075 12016,11085 12019,11094 12019,11106 L 12019,11106 Z"/>
         <path fill="rgb(0,0,0)" stroke="none" d="M 11958,10639 C 11734,10639 11552,10821 11552,11045 11552,11269 11734,11451 11958,11451 12182,11451 12364,11269 12364,11045 12364,10821 12182,10639 11958,10639 Z M 11958,10740 C 12008,10740 12049,10781 12049,10832 12049,10882 12008,10923 11958,10923 11908,10923 11867,10882 11867,10832 11867,10781 11908,10740 11958,10740 Z M 12161,11271 C 12143,11288 12122,11302 12100,11314 L 12100,11286 C 12100,11272 12093,11260 12082,11249 12055,11223 12005,11207 11958,11207 11919,11207 11878,11219 11850,11237 L 11843,11242 11835,11249 C 11867,11268 11901,11278 11938,11282 L 11992,11288 C 12007,11290 12019,11303 12019,11319 12019,11330 12012,11340 12003,11345 11991,11351 11977,11349 11964,11349 11950,11349 11936,11349 11922,11347 11902,11345 11882,11340 11863,11334 11843,11327 11823,11318 11805,11308 11796,11302 11787,11297 11779,11290 L 11766,11280 C 11765,11279 11755,11273 11755,11271 L 11755,11097 C 11755,11033 11862,10984 11958,10984 12054,10984 12161,11033 12161,11097 L 12161,11169 12161,11271 Z"/>
        </g>
       </g>
      </g>
      <g class="Graphic">
       <g id="id4">
        <rect class="BoundingBox" stroke="none" fill="none" x="11150" y="10537" width="1017" height="1017"/>
        <defs>
         <mask id="mask2">
          <g>
           <defs>
            <linearGradient id="gradient2" x1="11658" y1="10088" x2="11658" y2="12002" gradientUnits="userSpaceOnUse">
             <stop offset="0.5" style="stop-color:rgb(179,179,179)"/>
             <stop offset="0.5" style="stop-color:rgb(179,179,179)"/>
             <stop offset="1" style="stop-color:rgb(179,179,179)"/>
             <stop offset="1" style="stop-color:rgb(179,179,179)"/>
            </linearGradient>
           </defs>
           <path style="fill:url(#gradient2)" d="M 10701,10088 L 12615,10088 12615,12002 10701,12002 10701,10088 Z"/>
          </g>
         </mask>
        </defs>
        <g style="mask:url(#mask2)">
         <path fill="rgb(0,0,0)" stroke="none" d="M 11719,11106 C 11719,11117 11716,11126 11711,11136 11705,11146 11698,11153 11688,11158 11679,11164 11669,11167 11658,11167 11647,11167 11637,11164 11628,11158 11618,11153 11611,11146 11605,11136 11600,11126 11597,11117 11597,11106 11597,11094 11600,11085 11605,11075 11611,11065 11618,11058 11628,11053 11637,11047 11647,11045 11658,11045 11669,11045 11679,11047 11688,11053 11698,11058 11705,11065 11711,11075 11716,11085 11719,11094 11719,11106 L 11719,11106 Z"/>
         <path fill="rgb(0,0,0)" stroke="none" d="M 11658,10639 C 11434,10639 11252,10821 11252,11045 11252,11269 11434,11451 11658,11451 11882,11451 12064,11269 12064,11045 12064,10821 11882,10639 11658,10639 Z M 11658,10740 C 11708,10740 11749,10781 11749,10832 11749,10882 11708,10923 11658,10923 11608,10923 11567,10882 11567,10832 11567,10781 11608,10740 11658,10740 Z M 11861,11271 C 11843,11288 11822,11302 11800,11314 L 11800,11286 C 11800,11272 11793,11260 11782,11249 11755,11223 11705,11207 11658,11207 11619,11207 11578,11219 11550,11237 L 11543,11242 11535,11249 C 11567,11268 11601,11278 11638,11282 L 11692,11288 C 11707,11290 11719,11303 11719,11319 11719,11330 11712,11340 11703,11345 11691,11351 11677,11349 11664,11349 11650,11349 11636,11349 11622,11347 11602,11345 11582,11340 11563,11334 11543,11327 11523,11318 11505,11308 11496,11302 11487,11297 11479,11290 L 11466,11280 C 11465,11279 11455,11273 11455,11271 L 11455,11097 C 11455,11033 11562,10984 11658,10984 11754,10984 11861,11033 11861,11097 L 11861,11169 11861,11271 Z"/>
        </g>
       </g>
      </g>
      <g class="Graphic">
       <g id="id5">
        <rect class="BoundingBox" stroke="none" fill="none" x="11250" y="10737" width="1017" height="1017"/>
        <path fill="rgb(0,0,0)" stroke="none" d="M 11819,11306 C 11819,11317 11816,11326 11811,11336 11805,11346 11798,11353 11788,11358 11779,11364 11769,11367 11758,11367 11747,11367 11737,11364 11728,11358 11718,11353 11711,11346 11705,11336 11700,11326 11697,11317 11697,11306 11697,11294 11700,11285 11705,11275 11711,11265 11718,11258 11728,11253 11737,11247 11747,11245 11758,11245 11769,11245 11779,11247 11788,11253 11798,11258 11805,11265 11811,11275 11816,11285 11819,11294 11819,11306 L 11819,11306 Z"/>
        <path fill="rgb(0,0,0)" stroke="none" d="M 11758,10839 C 11534,10839 11352,11021 11352,11245 11352,11469 11534,11651 11758,11651 11982,11651 12164,11469 12164,11245 12164,11021 11982,10839 11758,10839 Z M 11758,10940 C 11808,10940 11849,10981 11849,11032 11849,11082 11808,11123 11758,11123 11708,11123 11667,11082 11667,11032 11667,10981 11708,10940 11758,10940 Z M 11961,11471 C 11943,11488 11922,11502 11900,11514 L 11900,11486 C 11900,11472 11893,11460 11882,11449 11855,11423 11805,11407 11758,11407 11719,11407 11678,11419 11650,11437 L 11643,11442 11635,11449 C 11667,11468 11701,11478 11738,11482 L 11792,11488 C 11807,11490 11819,11503 11819,11519 11819,11530 11812,11540 11803,11545 11791,11551 11777,11549 11764,11549 11750,11549 11736,11549 11722,11547 11702,11545 11682,11540 11663,11534 11643,11527 11623,11518 11605,11508 11596,11502 11587,11497 11579,11490 L 11566,11480 C 11565,11479 11555,11473 11555,11471 L 11555,11297 C 11555,11233 11662,11184 11758,11184 11854,11184 11961,11233 11961,11297 L 11961,11369 11961,11471 Z"/>
       </g>
      </g>
     </g>
    </g>
   </g>
  </g>
 </g>
</svg>