<?xml version="1.0" encoding="UTF-8"?>
<!DOCTYPE svg PUBLIC "-//W3C//DTD SVG 1.1//EN" "http://www.w3.org/Graphics/SVG/1.1/DTD/svg11.dtd">
<svg version="1.2" width="12.9mm" height="12.69mm" viewBox="11160 6081 1290 1269" preserveAspectRatio="xMidYMid" fill-rule="evenodd" stroke-width="28.222" stroke-linejoin="round" xmlns="http://www.w3.org/2000/svg" xmlns:ooo="http://xml.openoffice.org/svg/export" xmlns:xlink="http://www.w3.org/1999/xlink" xmlns:presentation="http://sun.com/xmlns/staroffice/presentation" xmlns:smil="http://www.w3.org/2001/SMIL20/" xmlns:anim="urn:oasis:names:tc:opendocument:xmlns:animation:1.0" xml:space="preserve">
 <defs class="ClipPathGroup">
  <clipPath id="presentation_clip_path" clipPathUnits="userSpaceOnUse">
   <rect x="11160" y="6081" width="1290" height="1269"/>
  </clipPath>
  <clipPath id="presentation_clip_path_shrink" clipPathUnits="userSpaceOnUse">
   <rect x="11161" y="6082" width="1288" height="1267"/>
  </clipPath>
 </defs>
 <defs class="TextShapeIndex">
  <g ooo:slide="id1" ooo:id-list="id3 id4 id5"/>
 </defs>
 <defs class="EmbeddedBulletChars">
  <g id="bullet-char-template(57356)" transform="scale(0.00048828125,-0.00048828125)">
   <path d="M 580,1141 L 1163,571 580,0 -4,571 580,1141 Z"/>
  </g>
  <g id="bullet-char-template(57354)" transform="scale(0.00048828125,-0.00048828125)">
   <path d="M 8,1128 L 1137,1128 1137,0 8,0 8,1128 Z"/>
  </g>
  <g id="bullet-char-template(10146)" transform="scale(0.00048828125,-0.00048828125)">
   <path d="M 174,0 L 602,739 174,1481 1456,739 174,0 Z M 1358,739 L 309,1346 659,739 1358,739 Z"/>
  </g>
  <g id="bullet-char-template(10132)" transform="scale(0.00048828125,-0.00048828125)">
   <path d="M 2015,739 L 1276,0 717,0 1260,543 174,543 174,936 1260,936 717,1481 1274,1481 2015,739 Z"/>
  </g>
  <g id="bullet-char-template(10007)" transform="scale(0.00048828125,-0.00048828125)">
   <path d="M 0,-2 C -7,14 -16,27 -25,37 L 356,567 C 262,823 215,952 215,954 215,979 228,992 255,992 264,992 276,990 289,987 310,991 331,999 354,1012 L 381,999 492,748 772,1049 836,1024 860,1049 C 881,1039 901,1025 922,1006 886,937 835,863 770,784 769,783 710,716 594,584 L 774,223 C 774,196 753,168 711,139 L 727,119 C 717,90 699,76 672,76 641,76 570,178 457,381 L 164,-76 C 142,-110 111,-127 72,-127 30,-127 9,-110 8,-76 1,-67 -2,-52 -2,-32 -2,-23 -1,-13 0,-2 Z"/>
  </g>
  <g id="bullet-char-template(10004)" transform="scale(0.00048828125,-0.00048828125)">
   <path d="M 285,-33 C 182,-33 111,30 74,156 52,228 41,333 41,471 41,549 55,616 82,672 116,743 169,778 240,778 293,778 328,747 346,684 L 369,508 C 377,444 397,411 428,410 L 1163,1116 C 1174,1127 1196,1133 1229,1133 1271,1133 1292,1118 1292,1087 L 1292,965 C 1292,929 1282,901 1262,881 L 442,47 C 390,-6 338,-33 285,-33 Z"/>
  </g>
  <g id="bullet-char-template(9679)" transform="scale(0.00048828125,-0.00048828125)">
   <path d="M 813,0 C 632,0 489,54 383,161 276,268 223,411 223,592 223,773 276,916 383,1023 489,1130 632,1184 813,1184 992,1184 1136,1130 1245,1023 1353,916 1407,772 1407,592 1407,412 1353,268 1245,161 1136,54 992,0 813,0 Z"/>
  </g>
  <g id="bullet-char-template(8226)" transform="scale(0.00048828125,-0.00048828125)">
   <path d="M 346,457 C 273,457 209,483 155,535 101,586 74,649 74,723 74,796 101,859 155,911 209,963 273,989 346,989 419,989 480,963 531,910 582,859 608,796 608,723 608,648 583,586 532,535 482,483 420,457 346,457 Z"/>
  </g>
  <g id="bullet-char-template(8211)" transform="scale(0.00048828125,-0.00048828125)">
   <path d="M -4,459 L 1135,459 1135,606 -4,606 -4,459 Z"/>
  </g>
  <g id="bullet-char-template(61548)" transform="scale(0.00048828125,-0.00048828125)">
   <path d="M 173,740 C 173,903 231,1043 346,1159 462,1274 601,1332 765,1332 928,1332 1067,1274 1183,1159 1299,1043 1357,903 1357,740 1357,577 1299,437 1183,322 1067,206 928,148 765,148 601,148 462,206 346,322 231,437 173,577 173,740 Z"/>
  </g>
 </defs>
 <defs class="TextEmbeddedBitmaps"/>
 <g class="SlideGroup">
  <g>
   <g id="container-id1">
    <g id="id1" class="Slide" clip-path="url(#presentation_clip_path)">
     <g class="Page">
      <g class="Graphic">
       <g id="id3">
        <rect class="BoundingBox" stroke="none" fill="none" x="11561" y="6082" width="890" height="890"/>
        <defs>
         <mask id="mask1">
          <g>
           <defs>
            <linearGradient id="gradient1" x1="12005" y1="5689" x2="12005" y2="7364" gradientUnits="userSpaceOnUse">
             <stop offset="0.5" style="stop-color:rgb(179,179,179)"/>
             <stop offset="0.5" style="stop-color:rgb(179,179,179)"/>
             <stop offset="1" style="stop-color:rgb(179,179,179)"/>
             <stop offset="1" style="stop-color:rgb(179,179,179)"/>
            </linearGradient>
           </defs>
           <path style="fill:url(#gradient1)" d="M 11168,5689 L 12843,5689 12843,7364 11168,7364 11168,5689 Z"/>
          </g>
         </mask>
        </defs>
        <g style="mask:url(#mask1)">
         <path fill="rgb(0,0,0)" stroke="none" d="M 12006,6349 L 12006,6206 11650,6206 11650,6847 12361,6847 12361,6349 12006,6349 12006,6349 Z M 11792,6775 L 11721,6775 11721,6704 11792,6704 11792,6775 11792,6775 Z M 11792,6633 L 11721,6633 11721,6562 11792,6562 11792,6633 11792,6633 Z M 11792,6491 L 11721,6491 11721,6420 11792,6420 11792,6491 11792,6491 Z M 11792,6349 L 11721,6349 11721,6278 11792,6278 11792,6349 11792,6349 Z M 11934,6775 L 11863,6775 11863,6704 11934,6704 11934,6775 11934,6775 Z M 11934,6633 L 11863,6633 11863,6562 11934,6562 11934,6633 11934,6633 Z M 11934,6491 L 11863,6491 11863,6420 11934,6420 11934,6491 11934,6491 Z M 11934,6349 L 11863,6349 11863,6278 11934,6278 11934,6349 11934,6349 Z M 12290,6775 L 12006,6775 12006,6704 12077,6704 12077,6633 12006,6633 12006,6562 12077,6562 12077,6491 12006,6491 12006,6420 12290,6420 12290,6775 12290,6775 Z M 12219,6491 L 12148,6491 12148,6562 12219,6562 12219,6491 12219,6491 Z M 12219,6633 L 12148,6633 12148,6704 12219,6704 12219,6633 12219,6633 Z"/>
        </g>
       </g>
      </g>
      <g class="Graphic">
       <g id="id4">
        <rect class="BoundingBox" stroke="none" fill="none" x="11160" y="6081" width="890" height="890"/>
        <defs>
         <mask id="mask2">
          <g>
           <defs>
            <linearGradient id="gradient2" x1="11604" y1="5688" x2="11604" y2="7363" gradientUnits="userSpaceOnUse">
             <stop offset="0.5" style="stop-color:rgb(179,179,179)"/>
             <stop offset="0.5" style="stop-color:rgb(179,179,179)"/>
             <stop offset="1" style="stop-color:rgb(179,179,179)"/>
             <stop offset="1" style="stop-color:rgb(179,179,179)"/>
            </linearGradient>
           </defs>
           <path style="fill:url(#gradient2)" d="M 10767,5688 L 12442,5688 12442,7363 10767,7363 10767,5688 Z"/>
          </g>
         </mask>
        </defs>
        <g style="mask:url(#mask2)">
         <path fill="rgb(0,0,0)" stroke="none" d="M 11605,6348 L 11605,6205 11249,6205 11249,6846 11960,6846 11960,6348 11605,6348 11605,6348 Z M 11391,6774 L 11320,6774 11320,6703 11391,6703 11391,6774 11391,6774 Z M 11391,6632 L 11320,6632 11320,6561 11391,6561 11391,6632 11391,6632 Z M 11391,6490 L 11320,6490 11320,6419 11391,6419 11391,6490 11391,6490 Z M 11391,6348 L 11320,6348 11320,6277 11391,6277 11391,6348 11391,6348 Z M 11533,6774 L 11462,6774 11462,6703 11533,6703 11533,6774 11533,6774 Z M 11533,6632 L 11462,6632 11462,6561 11533,6561 11533,6632 11533,6632 Z M 11533,6490 L 11462,6490 11462,6419 11533,6419 11533,6490 11533,6490 Z M 11533,6348 L 11462,6348 11462,6277 11533,6277 11533,6348 11533,6348 Z M 11889,6774 L 11605,6774 11605,6703 11676,6703 11676,6632 11605,6632 11605,6561 11676,6561 11676,6490 11605,6490 11605,6419 11889,6419 11889,6774 11889,6774 Z M 11818,6490 L 11747,6490 11747,6561 11818,6561 11818,6490 11818,6490 Z M 11818,6632 L 11747,6632 11747,6703 11818,6703 11818,6632 11818,6632 Z"/>
        </g>
       </g>
      </g>
      <g class="Graphic">
       <g id="id5">
        <rect class="BoundingBox" stroke="none" fill="none" x="11286" y="6334" width="1017" height="1017"/>
        <path fill="rgb(0,0,0)" stroke="none" d="M 11794,6639 L 11794,6476 11388,6476 11388,7208 12200,7208 12200,6639 11794,6639 11794,6639 Z M 11550,7126 L 11469,7126 11469,7045 11550,7045 11550,7126 11550,7126 Z M 11550,6964 L 11469,6964 11469,6883 11550,6883 11550,6964 11550,6964 Z M 11550,6801 L 11469,6801 11469,6720 11550,6720 11550,6801 11550,6801 Z M 11550,6639 L 11469,6639 11469,6558 11550,6558 11550,6639 11550,6639 Z M 11713,7126 L 11631,7126 11631,7045 11713,7045 11713,7126 11713,7126 Z M 11713,6964 L 11631,6964 11631,6883 11713,6883 11713,6964 11713,6964 Z M 11713,6801 L 11631,6801 11631,6720 11713,6720 11713,6801 11713,6801 Z M 11713,6639 L 11631,6639 11631,6558 11713,6558 11713,6639 11713,6639 Z M 12119,7126 L 11794,7126 11794,7045 11875,7045 11875,6964 11794,6964 11794,6883 11875,6883 11875,6801 11794,6801 11794,6720 12119,6720 12119,7126 12119,7126 Z M 12038,6801 L 11957,6801 11957,6883 12038,6883 12038,6801 12038,6801 Z M 12038,6964 L 11957,6964 11957,7045 12038,7045 12038,6964 12038,6964 Z"/>
       </g>
      </g>
     </g>
    </g>
   </g>
  </g>
 </g>
</svg>